<svg width="16" height="16" viewBox="0 0 16 16" fill="none" xmlns="http://www.w3.org/2000/svg">
<path d="M1.50008 7.46668C1.3968 7.58743 1.34004 7.74111 1.34004 7.90001C1.34004 8.05891 1.3968 8.21259 1.50008 8.33334L5.50008 13.0933C5.55617 13.1628 5.62564 13.2203 5.70437 13.2624C5.7831 13.3045 5.86949 13.3304 5.95841 13.3384C6.04732 13.3465 6.13695 13.3367 6.22199 13.3095C6.30702 13.2822 6.38572 13.2382 6.45342 13.18C6.52382 13.1148 6.57932 13.0352 6.61614 12.9466C6.65296 12.858 6.67022 12.7626 6.66675 12.6667C6.66705 12.5109 6.6128 12.36 6.51342 12.24L3.52008 8.66668L14.0001 8.66668C14.1769 8.66668 14.3465 8.59644 14.4715 8.47142C14.5965 8.34639 14.6667 8.17682 14.6667 8.00001C14.6667 7.8232 14.5965 7.65363 14.4715 7.52861C14.3465 7.40358 14.1769 7.33334 14.0001 7.33334L3.40008 7.33334L6.50008 3.77334C6.61581 3.63982 6.6738 3.4658 6.6613 3.28955C6.6488 3.11329 6.56683 2.9492 6.43342 2.83334C6.36714 2.77502 6.28994 2.73043 6.20629 2.70218C6.12264 2.67393 6.03422 2.66258 5.94615 2.66878C5.85808 2.67499 5.77211 2.69862 5.69325 2.73831C5.61439 2.77801 5.5442 2.83297 5.48675 2.90001L1.50008 7.46668Z" fill="white"/>
</svg>
