<svg width="32" height="32" viewBox="0 0 32 32" fill="none" xmlns="http://www.w3.org/2000/svg">
<path fill-rule="evenodd" clip-rule="evenodd" d="M25.3337 26C25.3337 27.1053 24.4377 28 23.3337 28C22.2297 28 21.3337 27.1053 21.3337 26C21.3337 24.8947 22.2297 24 23.3337 24C24.4377 24 25.3337 24.8947 25.3337 26ZM12.0003 26C12.0003 27.1053 11.1043 28 10.0003 28C8.89633 28 8.00033 27.1053 8.00033 26C8.00033 24.8947 8.89633 24 10.0003 24C11.1043 24 12.0003 24.8947 12.0003 26ZM21.843 18.6667H11.6857L9.50299 10.6667H25.843L21.843 18.6667ZM28.111 9.264C27.6217 8.472 26.7737 8 25.843 8H8.77633L7.95366 4.98267C7.79499 4.40267 7.26833 4 6.66699 4H4.00033C3.26299 4 2.66699 4.59733 2.66699 5.33333C2.66699 6.06933 3.26299 6.66667 4.00033 6.66667H5.64833L9.38033 20.3507C9.53899 20.9307 10.0657 21.3333 10.667 21.3333H22.667C23.1723 21.3333 23.6337 21.048 23.8603 20.596L28.2283 11.8587C28.6443 11.0253 28.6003 10.056 28.111 9.264Z" fill="#FFC2EE"/>
</svg>
