<svg width="39" height="32" viewBox="0 0 39 32" fill="none" xmlns="http://www.w3.org/2000/svg">
<g clip-path="url(#clip0_4_399)">
<path d="M15.1883 1.22665e-05C16.1283 0.197964 17.0533 0.464044 17.9562 0.79623C20.3421 1.89501 22.7045 3.06543 25.0514 4.25976C26.5484 5.01617 27.9908 5.85219 29.4722 6.64841C30.9536 7.44463 32.2557 8.07364 33.6435 8.79024C34.1971 9.07688 34.7507 9.37946 35.312 9.65017C36.0527 10.0085 36.8091 10.3668 37.5654 10.6932C37.7288 10.7424 37.881 10.8242 38.0132 10.934C38.1454 11.0437 38.255 11.1792 38.3355 11.3325C38.416 11.4859 38.4659 11.654 38.4822 11.8272C38.4986 12.0004 38.4811 12.1752 38.4308 12.3414C38.3593 13.0423 38.3463 13.7482 38.3918 14.4514C38.3918 14.9609 38.4542 15.4705 38.4854 15.9801C38.5867 17.7079 38.7271 19.4437 38.7505 21.1714C38.7181 21.6638 38.7981 22.1572 38.9844 22.6126C39.0468 22.7241 38.9454 22.9072 38.9376 23.0664C38.9104 23.4189 38.9104 23.773 38.9376 24.1254C38.9628 24.2751 38.9295 24.429 38.845 24.554C38.7605 24.679 38.6314 24.7652 38.4854 24.7942C37.1677 25.1764 35.85 25.5506 34.5246 25.893C33.3628 26.1876 32.1855 26.4424 31.0082 26.6892C29.8308 26.9361 28.5912 27.1988 27.3904 27.4854C26.1897 27.7721 24.9422 28.1304 23.7103 28.3931C21.7377 28.8231 19.7573 29.1894 17.7847 29.6114C16.6073 29.8582 15.4456 30.1608 14.2683 30.4076C12.7661 30.7261 11.2535 31.026 9.73048 31.3073C8.70149 31.5371 7.66008 31.7046 6.61173 31.8089C5.49677 31.8806 4.36624 32.1593 3.24349 31.6974C2.87062 31.5613 2.53111 31.3441 2.24842 31.0609C1.96573 30.7778 1.74661 30.4353 1.60614 30.0572C1.14613 28.7594 0.740691 27.4297 0.389831 26.0762C0.272405 25.4595 0.209759 24.8332 0.20269 24.205C0.132518 23.3212 0.0233607 22.4374 0.0311575 21.5536C0.0311575 20.0647 0.124719 18.5678 0.249469 17.0789C0.343927 16.4301 0.492616 15.7908 0.693897 15.168C0.990179 13.9657 1.27866 12.7793 1.59053 11.577C1.75427 10.948 1.96479 10.3349 2.15971 9.72183C2.54908 8.75645 3.17459 7.90931 3.97638 7.26152C4.73648 6.5357 5.54122 5.86019 6.38563 5.23912C7.27448 4.57825 8.2257 3.98907 9.13793 3.36005C9.91762 2.82659 10.6973 2.29312 11.438 1.76762C12.1787 1.24211 14.2917 -0.0318365 15.1883 1.22665e-05ZM37.6043 12.8669L37.1989 12.7952C36.3568 12.6758 35.5148 12.5245 34.6649 12.4688C33.9554 12.421 33.2459 12.4688 32.5364 12.4688C29.9314 12.4559 27.329 12.3044 24.7395 12.0149C23.1801 11.8238 21.6207 11.8636 20.0613 11.8079C19.6793 11.8079 19.2817 11.8079 18.9152 11.8079C18.0809 11.7522 17.2467 11.6566 16.4124 11.6168C16.0382 11.6168 15.6327 11.7283 15.2897 11.7044C13.7303 11.6168 12.1709 11.4974 10.6583 11.4018C9.78506 11.3461 8.90401 11.3222 8.02296 11.2824C7.2731 11.186 6.5158 11.1646 5.76187 11.2187C5.22389 11.3063 4.43641 10.9241 4.16352 11.8796C3.82825 13.05 3.33704 14.1806 3.05635 15.367C2.75186 16.7364 2.51763 18.121 2.35464 19.5153C2.21666 20.5845 2.30981 21.6717 2.62753 22.7002C2.86924 23.4964 3.06416 24.2926 3.24349 25.1446C3.34653 25.9331 3.49491 26.7147 3.6879 27.4854C3.9374 28.21 4.25707 29.0062 5.24727 29.0779C5.49133 29.0938 5.73613 29.0938 5.98018 29.0779C6.6741 29.0381 7.37582 29.0062 8.06974 28.9266C8.76366 28.847 9.37963 28.7116 10.0346 28.6081C11.0404 28.4489 12.054 28.3215 13.052 28.1224C14.2761 27.8756 15.4846 27.5571 16.7009 27.2784C18.424 26.8883 20.1549 26.53 21.878 26.116C22.954 25.8532 24.0144 25.5108 25.0903 25.2242C25.9558 24.9933 26.8213 24.7703 27.7023 24.5793C28.5834 24.3882 29.6359 24.221 30.5949 23.998C31.2811 23.8388 31.9516 23.5681 32.6377 23.4168C34.2907 23.0505 35.9592 22.74 37.6121 22.3897C37.7603 22.3897 37.9864 22.2304 37.9942 22.1349C38.0332 21.5695 37.9942 21.0042 37.9942 20.3275C37.8148 20.4787 37.7525 20.5265 37.6901 20.5902C37.3532 20.9272 36.933 21.1645 36.4743 21.2767C36.0157 21.3889 35.5358 21.3718 35.086 21.2272C34.0022 20.8609 33.2771 20.3832 33.4252 19.0615C33.4369 18.9211 33.4369 18.7799 33.4252 18.6395C33.3982 18.1594 33.5338 17.6844 33.8092 17.2944C34.0847 16.9043 34.4832 16.623 34.9378 16.4977C35.4198 16.3527 35.9265 16.3146 36.4241 16.386C36.9216 16.4574 37.3985 16.6366 37.8226 16.9117C37.7213 15.4944 37.6667 14.1727 37.6043 12.8669ZM35.1249 10.7808L35.1795 10.5977C35.0136 10.4613 34.8391 10.3363 34.6571 10.2234L32.1699 8.91764L28.5677 7.02264L26.065 5.66111C25.2853 5.23911 24.5446 4.78528 23.7727 4.37921C23.1489 4.06072 22.494 3.82185 21.8858 3.4954C21.036 3.03359 20.2173 2.52402 19.3752 2.06221C19.1094 1.95322 18.8357 1.86536 18.5566 1.79945C17.847 1.5367 17.1531 1.19432 16.4202 1.00323C15.9297 0.861464 15.4156 0.825767 14.9108 0.89843C14.406 0.971094 13.9216 1.15052 13.4886 1.42523C11.8434 2.45235 10.2139 3.49539 8.60773 4.6101C7.48498 5.35854 6.40902 6.20253 5.33305 6.99875C4.77168 7.42075 4.26488 7.91441 3.62553 8.47176C3.83346 8.5247 4.04437 8.56458 4.25708 8.59119C4.98219 8.59119 5.7073 8.59119 6.43241 8.67081L11.9838 9.07689C12.935 9.14059 13.8862 9.14855 14.8296 9.22021C15.9134 9.29983 16.9894 9.41927 18.0732 9.50686C19.3518 9.6024 20.6383 9.67406 21.917 9.75368L26.486 10.0403C26.6599 10.0284 26.8344 10.0284 27.0084 10.0403C28.5019 10.3639 30.0278 10.5055 31.554 10.4623C31.7239 10.4696 31.8932 10.4882 32.0608 10.518L35.1249 10.7808ZM38.0722 23.2257C37.9508 23.2049 37.827 23.2049 37.7057 23.2257L34.5324 23.9104C33.8774 24.0538 33.2069 24.1732 32.552 24.3483C31.6709 24.5793 30.8133 24.9057 29.9244 25.1446C29.1447 25.3277 28.365 25.3516 27.5854 25.5188C26.2365 25.8293 24.911 26.2195 23.5622 26.5459C22.2133 26.8724 20.7007 27.1829 19.2661 27.5014C18.3071 27.7163 17.3558 27.9473 16.389 28.1384C15.4222 28.3294 14.6425 28.3931 13.7849 28.5922C12.9272 28.7913 12.0852 29.1257 11.2119 29.2849C9.90983 29.5238 8.59995 29.6671 7.31347 29.8343C6.77099 29.91 6.22351 29.9419 5.67612 29.9298C5.18805 29.9547 4.70129 29.8591 4.25708 29.6512C3.74069 29.2646 3.31672 28.7636 3.01695 28.1858C2.71718 27.608 2.54939 26.9684 2.52617 26.315C2.36549 25.0456 2.10474 23.7914 1.74648 22.5648C1.30206 20.9167 1.61392 19.2605 1.83224 17.6203C2.00356 16.5537 2.26442 15.5042 2.61192 14.4832C2.96278 13.3367 3.39162 12.222 3.83604 11.1152C3.89608 10.995 3.98078 10.8893 4.08438 10.8055C4.18798 10.7217 4.30805 10.6617 4.43641 10.6295C5.13926 10.534 5.84829 10.494 6.55717 10.5101C8.2257 10.5738 9.89423 10.7012 11.5706 10.7808C13.1299 10.8445 14.6893 10.8843 16.1863 10.9321L19.1569 11.0356H19.4688C20.3343 11.1232 21.1919 11.2426 22.0496 11.2983C22.9072 11.3541 23.6713 11.2983 24.4744 11.3541C26.447 11.4735 28.4118 11.6487 30.3766 11.7601C31.2733 11.8159 32.1855 11.7124 33.0821 11.7601C34.2985 11.8637 35.507 12.0627 36.7233 12.2219C36.9464 12.2679 37.1742 12.2866 37.4016 12.2777C37.5342 12.2777 37.6355 12.0866 37.7525 11.9751C37.6589 11.8955 37.5654 11.7601 37.464 11.7522C36.7701 11.6646 36.0762 11.577 35.3744 11.5452C34.6727 11.5133 33.7371 11.5929 32.9262 11.5452C31.0394 11.37 29.1603 11.1152 27.2813 10.9241C25.909 10.7888 24.529 10.7091 23.1567 10.6056C21.7845 10.5021 20.5292 10.3827 19.2115 10.2871C17.7379 10.1757 16.2721 10.0562 14.7985 9.96865C13.2001 9.88107 11.6095 9.8333 10.0112 9.74571C9.12234 9.69794 8.23349 9.61035 7.35244 9.5148C6.47139 9.41926 5.69951 9.31575 4.87304 9.22021C4.44421 9.17243 4.01537 9.13263 3.59434 9.12466C3.5081 9.12423 3.42285 9.14326 3.34467 9.18043C3.26648 9.2176 3.19732 9.27197 3.14213 9.33963C2.92636 9.80957 2.74901 10.2969 2.61192 10.7967C2.19089 12.4369 1.7231 14.0692 1.41122 15.7253C1.14217 17.2665 0.954769 18.8214 0.849844 20.3832C0.824021 21.2626 0.852655 22.1429 0.935599 23.0187C0.918393 23.7402 0.960124 24.462 1.06035 25.1764C1.38002 26.7052 1.76208 28.2259 2.19091 29.7387C2.40926 30.2509 2.77213 30.6851 3.23319 30.9857C3.69425 31.2864 4.23259 31.4399 4.77948 31.4267C5.63714 31.2914 6.50257 31.2277 7.36803 31.1003C8.23348 30.9729 8.9274 30.8455 9.70709 30.6703C10.0969 30.5907 10.4868 30.6703 10.861 30.6066C11.6797 30.5111 12.4594 30.1289 13.2781 29.9458C15.4924 29.4521 17.7145 28.9983 19.9366 28.5205C21.1451 28.2578 22.3458 27.9791 23.5544 27.7243C24.4276 27.5332 25.3087 27.358 26.1819 27.151C28.6093 26.5671 31.029 25.9779 33.4408 25.3834C34.7195 25.0729 35.9904 24.7385 37.2613 24.42C37.7759 24.2926 38.3451 24.2289 38.1345 23.4327C38.1223 23.3613 38.1013 23.2918 38.0722 23.2257ZM35.7331 20.415C36.8091 20.5583 37.5732 19.4834 37.8149 18.6156C37.8305 18.5792 37.8386 18.5399 37.8386 18.5001C37.8386 18.4604 37.8305 18.4211 37.8149 18.3847C37.6866 18.1249 37.5068 17.8952 37.2871 17.71C37.0674 17.5248 36.8124 17.3882 36.5383 17.3089C36.2642 17.2296 35.9769 17.2092 35.6947 17.2491C35.4125 17.289 35.1415 17.3883 34.8988 17.5407C34.6232 17.7052 34.4018 17.9498 34.2629 18.2434C34.124 18.537 34.074 18.8661 34.1191 19.1888C34.1751 19.5663 34.374 19.9063 34.6729 20.1356C34.9718 20.3649 35.3469 20.4652 35.7175 20.415H35.7331Z" fill="white"/>
<path d="M12.701 26.3867C11.8977 26.4637 11.0955 26.2276 10.4555 25.7258C9.73436 25.1507 9.22132 24.3467 8.9975 23.4407C8.86477 22.7734 8.86477 22.0856 8.9975 21.4183C9.0481 21.0653 9.20401 20.7368 9.44397 20.4775C9.68394 20.2182 9.99629 20.0407 10.3386 19.9692C10.858 19.7625 11.3924 19.5975 11.9369 19.4755C12.9311 19.3673 13.9322 19.5998 14.7828 20.1364C15.6794 20.6061 16.272 22.31 16.0771 23.3212C16.0255 24.1399 15.7102 24.9181 15.1804 25.5347C14.4669 26.087 13.5963 26.3861 12.701 26.3867ZM15.2818 22.8355C15.4065 22.3419 15.1103 21.9199 14.8842 21.4501C14.692 21.1055 14.4142 20.8187 14.0788 20.6188C13.7434 20.4188 13.3623 20.3128 12.9739 20.3115C12.1661 20.285 11.3639 20.457 10.6349 20.8131C10.3967 20.8838 10.1874 21.0314 10.0384 21.2338C9.88938 21.4363 9.80866 21.6826 9.80838 21.9358C9.7616 22.3431 9.7616 22.7547 9.80838 23.162C9.90336 23.8 10.2153 24.3835 10.6894 24.8102C11.1193 25.1674 11.6313 25.4068 12.177 25.5057C12.7227 25.6047 13.2842 25.5598 13.8082 25.3755C14.1938 25.2603 14.5415 25.0401 14.814 24.7385C15.0148 24.4706 15.1599 24.1636 15.2403 23.8364C15.3208 23.5091 15.3349 23.1686 15.2818 22.8355Z" fill="white"/>
<path d="M26.221 24.1015C24.5915 24.2608 23.2816 22.8913 22.9541 21.2351C22.8377 20.8339 22.8376 20.4068 22.9538 20.0055C23.07 19.6042 23.2976 19.2459 23.6091 18.9739C24.1029 18.56 24.6943 18.2855 25.3244 18.1776C26.6732 17.9786 28.1312 18.2652 28.8953 19.6905C29.0781 20.0808 29.1729 20.5079 29.1729 20.9405C29.1729 21.3731 29.0781 21.8003 28.8953 22.1906C28.6848 22.7718 28.4977 23.4327 27.8506 23.6954C27.3282 23.9024 26.7746 24.0378 26.2288 24.205L26.221 24.1015ZM26.104 23.2575C26.5111 23.3105 26.9243 23.2362 27.289 23.0442C27.6537 22.8523 27.9529 22.5519 28.1468 22.1826C28.7004 21.259 28.3651 19.7382 27.5231 19.3561C26.9622 19.0823 26.3372 18.9752 25.7195 19.0471C25.1018 19.1189 24.5164 19.3666 24.0301 19.7621C23.8176 19.9253 23.6729 20.164 23.6246 20.431C23.4453 21.6014 24.4667 23.4964 26.104 23.3053V23.2575Z" fill="white"/>
<path d="M7.76561 12.5166C9.43414 12.5564 9.78499 13.3128 10.167 14.5947C10.2689 14.9344 10.3026 15.2917 10.2662 15.645C10.2298 15.9984 10.1241 16.3407 9.9552 16.6513C9.78635 16.962 9.55789 17.2347 9.28349 17.4532C9.00909 17.6717 8.6944 17.8314 8.35818 17.9229C7.89946 18.127 7.39546 18.2014 6.89891 18.1384C6.40236 18.0753 5.93152 17.8772 5.53569 17.5646C5.06758 17.0874 4.74528 16.4816 4.60789 15.8209C4.46886 15.2706 4.48235 14.6917 4.64686 14.1488C4.93534 13.2013 5.8086 12.9067 6.65066 12.6758C7.0179 12.5943 7.39059 12.5411 7.76561 12.5166ZM5.17704 14.73C5.17933 15.0615 5.22656 15.3911 5.31738 15.7094C5.3868 16.0095 5.51797 16.2911 5.70213 16.5354C5.8863 16.7798 6.11928 16.9813 6.38557 17.1266C7.01032 17.3446 7.69411 17.3017 8.28801 17.0072C8.74654 16.811 9.11254 16.4407 9.3089 15.9743C9.50526 15.5079 9.51661 14.9819 9.34057 14.5071C9.20023 14.2045 8.89616 13.9975 8.71683 13.7109C8.5375 13.4242 8.5531 13.2252 8.21004 13.1854C7.44253 13.0776 6.66136 13.2226 5.98012 13.5994C5.5201 13.8542 5.14585 14.1249 5.17704 14.73Z" fill="white"/>
<path d="M22.5719 16.8082C22.0295 16.7406 21.5295 16.474 21.1652 16.058C20.8008 15.642 20.597 15.105 20.5916 14.5469C20.6159 14.2878 20.6902 14.0363 20.8102 13.8066C20.9301 13.577 21.0933 13.3738 21.2904 13.2088C21.4875 13.0438 21.7145 12.9202 21.9586 12.8451C22.2026 12.77 22.4588 12.745 22.7123 12.7713C23.2629 12.7337 23.8061 12.9175 24.2258 13.2836C24.6454 13.6496 24.9081 14.1688 24.9578 14.7301C24.87 15.3109 24.5808 15.8403 24.1429 16.2217C23.705 16.6031 23.1475 16.8112 22.5719 16.8082ZM24.2327 14.6902C24.3886 13.9975 23.453 13.4083 22.5642 13.4083C22.2402 13.4094 21.9271 13.5276 21.6802 13.7418C21.4334 13.956 21.2687 14.2525 21.2153 14.5788C21.2153 15.2954 21.9248 16.2747 22.4472 16.2747C22.8767 16.2566 23.2874 16.0899 23.6118 15.802C23.9363 15.514 24.1552 15.122 24.2327 14.6902Z" fill="white"/>
<path d="M30.33 14.2603C31.25 14.1329 31.3669 14.5549 31.4995 15.781C31.5144 15.9814 31.4891 16.1827 31.4254 16.3728C31.3617 16.5629 31.2607 16.7377 31.1287 16.8867C30.9967 17.0357 30.8364 17.1556 30.6575 17.2393C30.4786 17.323 30.2849 17.3686 30.0883 17.3735C29.7023 17.3228 29.3424 17.1469 29.0617 16.8717C28.7809 16.5965 28.5942 16.2365 28.5289 15.8447C28.4743 14.7539 29.0591 14.2603 30.33 14.2603ZM29.9713 16.5932C30.1819 16.5497 30.3726 16.4363 30.5136 16.2707C30.6546 16.1051 30.7381 15.8966 30.751 15.6775C30.751 15.2715 30.4469 15.152 30.135 15.1202C29.8232 15.0883 29.2306 15.5024 29.2384 15.7253C29.2852 16.1393 29.6594 16.6012 29.9713 16.5932Z" fill="white"/>
<path d="M6.96262 22.5091C7.08737 23.6238 6.33887 23.9502 5.40324 24.0219C5.04711 24.0166 4.70436 23.8825 4.43596 23.6434C4.16756 23.4043 3.99091 23.0757 3.93743 22.7161C3.93016 22.49 3.96686 22.2646 4.0454 22.053C4.12395 21.8415 4.2428 21.6479 4.39506 21.4835C4.54732 21.3192 4.72996 21.1872 4.93245 21.0954C5.13494 21.0036 5.35327 20.9536 5.57478 20.9485C6.58057 20.9565 6.96262 21.3785 6.96262 22.5091ZM5.70731 21.8004C5.09136 21.8004 4.78729 22.103 4.7717 22.6604C4.7561 23.2177 5.13814 23.1699 5.41883 23.2257C5.69952 23.2814 6.37004 22.7798 6.31547 22.4295C6.26089 22.0791 6.15953 21.7129 5.70731 21.8004Z" fill="white"/>
<path d="M20.1705 17.0391C20.2328 18.0025 19.6403 18.2732 18.6734 18.3847C17.9795 18.4643 17.4649 17.7477 17.4727 16.832C17.4563 16.6676 17.474 16.5014 17.5246 16.3443C17.5752 16.1873 17.6576 16.0429 17.7664 15.9204C17.8752 15.798 18.0081 15.7004 18.1563 15.6338C18.3045 15.5673 18.4648 15.5333 18.6267 15.5342C19.6325 15.566 20.2484 16.0597 20.1705 17.0391ZM18.6111 17.7636L19.5311 16.9674C19.3674 16.8002 19.188 16.4897 19.0477 16.5056C18.7202 16.5056 18.2056 16.4578 18.2056 17.0152C18.2134 17.2222 18.4317 17.4212 18.6267 17.7318L18.6111 17.7636Z" fill="white"/>
<path d="M11.3289 15.2396C11.3736 14.9042 11.5178 14.5908 11.7423 14.3417C11.9667 14.0925 12.2605 13.9196 12.5841 13.8462C13.0364 13.7427 13.5276 13.5357 13.933 13.9497C14.0865 14.0771 14.1868 14.2593 14.2137 14.4593C14.2071 14.9393 14.1363 15.4162 14.0032 15.8766C13.855 16.3225 13.3872 16.3623 12.9818 16.4419C12.7959 16.4738 12.6058 16.4681 12.4221 16.4249C12.2384 16.3818 12.0649 16.3021 11.9114 16.1905C11.7579 16.0788 11.6274 15.9374 11.5275 15.7742C11.4275 15.6111 11.36 15.4294 11.3289 15.2396ZM13.512 14.4434C13.2213 14.455 12.9344 14.5142 12.6621 14.6186C12.4157 14.8061 12.2177 15.052 12.0852 15.3351C12.0852 15.3988 12.2801 15.6855 12.436 15.7571C12.5511 15.8057 12.676 15.8253 12.8001 15.8145C12.9242 15.8036 13.0439 15.7625 13.1493 15.6947C13.2546 15.6269 13.3425 15.5342 13.4056 15.4246C13.4687 15.3149 13.5052 15.1914 13.512 15.0644C13.5198 14.8813 13.512 14.7061 13.512 14.4354V14.4434Z" fill="white"/>
<path d="M18.6189 24.1015C18.3606 24.1247 18.1016 24.065 17.878 23.9309C17.6544 23.7967 17.4773 23.5948 17.3714 23.3531C17.2755 23.0761 17.2829 22.7728 17.3922 22.501C17.5015 22.2293 17.705 22.0082 17.9639 21.8801C18.1976 21.6958 18.4616 21.5556 18.7436 21.4661C19.6558 21.3387 20.1393 21.8164 20.0379 22.8037C19.9365 23.9582 19.882 24.1015 18.6189 24.1015ZM18.689 23.584C19.1569 23.4725 19.6091 23.1142 19.5311 22.7878C19.507 22.6632 19.457 22.5454 19.3843 22.4423C19.3117 22.3393 19.2181 22.2534 19.1101 22.1906C18.7904 22.0871 18.0185 22.74 18.1199 22.9868C18.2212 23.2337 18.5097 23.4327 18.689 23.6159V23.584Z" fill="white"/>
<path d="M30.8679 23.377L31.5696 22.2304C31.6788 22.0552 31.8269 21.904 31.9205 21.7208C31.9467 21.6501 31.991 21.5879 32.0488 21.5407C32.1067 21.4934 32.1759 21.4629 32.2492 21.4523C32.3225 21.4418 32.3972 21.4515 32.4656 21.4805C32.5339 21.5095 32.5934 21.5568 32.6378 21.6173C32.6953 21.719 32.7256 21.8343 32.7256 21.9517C32.7256 22.0691 32.6953 22.1845 32.6378 22.2861C32.4414 22.5915 32.1804 22.848 31.8741 23.0367C31.5678 23.2255 31.224 23.3418 30.8679 23.377Z" fill="white"/>
<path d="M8.64673 27.5412C7.86705 27.9712 7.13413 28.6798 6.15172 28.2658C6.07554 28.2203 6.00928 28.1594 5.95699 28.0868C5.9047 28.0143 5.86749 27.9316 5.84766 27.8438C5.84766 27.7721 6.05038 27.5571 6.16733 27.5491C6.9938 27.5253 7.82026 27.5412 8.64673 27.5412Z" fill="white"/>
<path d="M20.7241 24.6828C21.0126 24.1812 21.2933 23.6795 21.5896 23.1859C21.6364 23.1222 21.8547 23.0744 21.8937 23.1142C21.9352 23.1613 21.9664 23.217 21.9852 23.2774C22.0041 23.3378 22.0101 23.4016 22.0028 23.4646C21.9424 23.7641 21.8062 24.0422 21.6079 24.2713C21.4095 24.5003 21.1559 24.6724 20.8723 24.7703L20.7241 24.6828Z" fill="white"/>
<path d="M34.0335 15.5899C33.9322 15.4387 33.7216 15.2476 33.7606 15.1441C33.8705 14.9317 34.0156 14.7405 34.1894 14.5788C34.2986 14.73 34.5091 14.8893 34.5091 15.0326C34.5091 15.1759 34.322 15.4068 34.2206 15.5979L34.0335 15.5899Z" fill="white"/>
<path d="M36.0997 14.3956C35.8268 14.6026 35.6474 14.8017 35.5851 14.7619C35.5227 14.7221 35.2966 14.4991 35.1562 14.3558C35.281 14.2523 35.398 14.0692 35.5227 14.0692C35.6475 14.0692 35.8034 14.2205 36.0997 14.3956Z" fill="white"/>
<path d="M5.25516 27.0316C5.13821 26.8166 5.00566 26.6733 5.03685 26.5777C5.06263 26.5085 5.10335 26.446 5.15599 26.395C5.20863 26.344 5.27183 26.3058 5.34092 26.2831C5.41109 26.2831 5.62163 26.4902 5.60603 26.5618C5.59044 26.6335 5.39551 26.8166 5.25516 27.0316Z" fill="white"/>
<path d="M9.7852 5.26301C9.72283 5.9159 9.13027 5.89999 8.7872 6.17071C8.44414 6.44142 8.00751 6.6564 7.63326 6.89527C7.39155 6.39365 8.91975 5.19135 9.7852 5.26301Z" fill="white"/>
<path d="M11.1182 8.12938C10.8288 8.19214 10.5327 8.21623 10.2372 8.20104C10.0345 8.20104 9.68364 7.91439 9.69923 7.81885C9.78817 7.48443 9.92477 7.16518 10.1047 6.87135C10.1047 6.83154 10.3074 6.83154 10.3698 6.87135C10.3993 6.9088 10.4196 6.95291 10.4291 6.99998C10.4386 7.04706 10.437 7.09577 10.4243 7.14208C10.1125 7.71536 10.4243 7.79497 10.8844 7.77905C10.9623 7.77905 11.0481 7.87459 11.1261 7.93033C11.204 7.98606 11.1182 8.06569 11.1182 8.12938Z" fill="white"/>
<path d="M27.9907 9.08486C28.7704 8.8858 29.5501 8.60712 30.3298 9.08486C29.9644 9.26245 29.5649 9.35459 29.1603 9.35459C28.7556 9.35459 28.3561 9.26245 27.9907 9.08486Z" fill="white"/>
<path d="M24.0846 21.2909C24.0378 20.3593 25.0358 19.4834 25.7531 19.8019L24.0846 21.2909Z" fill="white"/>
</g>
<defs>
<clipPath id="clip0_4_399">
<rect width="39" height="32" fill="white"/>
</clipPath>
</defs>
</svg>
