<svg width="24" height="24" viewBox="0 0 24 24" fill="none" xmlns="http://www.w3.org/2000/svg">
<path d="M17.0001 1.89999H14.4101C13.7589 1.86343 13.1075 1.96697 12.4998 2.20362C11.8921 2.44026 11.3422 2.80451 10.8873 3.27178C10.4323 3.73905 10.0829 4.29847 9.86257 4.9123C9.64224 5.52612 9.55614 6.18006 9.61009 6.82999V9.08999H7.00009C6.89306 9.08996 6.79026 9.13178 6.71365 9.20652C6.63704 9.28126 6.5927 9.383 6.59009 9.48999V12.78C6.59009 12.8887 6.63328 12.993 6.71017 13.0699C6.78706 13.1468 6.89135 13.19 7.00009 13.19H9.61009V21.49C9.61007 21.5434 9.62074 21.5962 9.64146 21.6454C9.66219 21.6946 9.69255 21.7392 9.73076 21.7764C9.76897 21.8137 9.81425 21.843 9.86394 21.8625C9.91363 21.882 9.96672 21.8913 10.0201 21.89H13.4201C13.5271 21.89 13.6299 21.8482 13.7065 21.7735C13.7831 21.6987 13.8275 21.597 13.8301 21.49V13.19H16.8301C16.8835 13.19 16.9363 13.1793 16.9855 13.1586C17.0347 13.1379 17.0792 13.1075 17.1165 13.0693C17.1538 13.0311 17.1831 12.9858 17.2026 12.9361C17.2221 12.8864 17.2314 12.8334 17.2301 12.78V9.48999C17.2281 9.38351 17.1892 9.28101 17.1201 9.19999C17.04 9.12934 16.9369 9.09024 16.8301 9.08999H13.8301V7.15999C13.8301 6.23999 14.0501 5.76999 15.2501 5.76999H17.0001C17.108 5.76745 17.2108 5.72344 17.2872 5.64709C17.3635 5.57075 17.4075 5.46793 17.4101 5.35999V2.30999C17.4101 2.20125 17.3669 2.09697 17.29 2.02008C17.2131 1.94319 17.1088 1.89999 17.0001 1.89999Z" fill="white"/>
</svg>
