<svg width="16" height="16" viewBox="0 0 16 16" fill="none" xmlns="http://www.w3.org/2000/svg">
<path fill-rule="evenodd" clip-rule="evenodd" d="M12.6666 13C12.6666 13.5527 12.2186 14 11.6666 14C11.1146 14 10.6666 13.5527 10.6666 13C10.6666 12.4473 11.1146 12 11.6666 12C12.2186 12 12.6666 12.4473 12.6666 13ZM5.99992 13C5.99992 13.5527 5.55192 14 4.99992 14C4.44792 14 3.99992 13.5527 3.99992 13C3.99992 12.4473 4.44792 12 4.99992 12C5.55192 12 5.99992 12.4473 5.99992 13ZM10.9213 9.33333H5.84259L4.75125 5.33333H12.9213L10.9213 9.33333ZM14.0553 4.632C13.8106 4.236 13.3866 4 12.9213 4H4.38792L3.97659 2.49133C3.89725 2.20133 3.63392 2 3.33325 2H1.99992C1.63125 2 1.33325 2.29867 1.33325 2.66667C1.33325 3.03467 1.63125 3.33333 1.99992 3.33333H2.82392L4.68992 10.1753C4.76925 10.4653 5.03259 10.6667 5.33325 10.6667H11.3333C11.5859 10.6667 11.8166 10.524 11.9299 10.298L14.1139 5.92933C14.3219 5.51267 14.2999 5.028 14.0553 4.632Z" fill="#1E1E24"/>
</svg>
