<svg width="40" height="40" viewBox="0 0 40 40" fill="none" xmlns="http://www.w3.org/2000/svg">
<path fill-rule="evenodd" clip-rule="evenodd" d="M31.6667 32.5C31.6667 33.8817 30.5467 35 29.1667 35C27.7867 35 26.6667 33.8817 26.6667 32.5C26.6667 31.1183 27.7867 30 29.1667 30C30.5467 30 31.6667 31.1183 31.6667 32.5ZM15 32.5C15 33.8817 13.88 35 12.5 35C11.12 35 10 33.8817 10 32.5C10 31.1183 11.12 30 12.5 30C13.88 30 15 31.1183 15 32.5ZM27.3033 23.3333H14.6067L11.8783 13.3333H32.3033L27.3033 23.3333ZM35.1383 11.58C34.5267 10.59 33.4667 10 32.3033 10H10.97L9.94167 6.22833C9.74333 5.50333 9.085 5 8.33333 5H5C4.07833 5 3.33333 5.74667 3.33333 6.66667C3.33333 7.58667 4.07833 8.33333 5 8.33333H7.06L11.725 25.4383C11.9233 26.1633 12.5817 26.6667 13.3333 26.6667H28.3333C28.965 26.6667 29.5417 26.31 29.825 25.745L35.285 14.8233C35.805 13.7817 35.75 12.57 35.1383 11.58Z" fill="#3B3F51"/>
</svg>
