<svg width="40" height="40" viewBox="0 0 40 40" fill="none" xmlns="http://www.w3.org/2000/svg">
<path d="M16.6667 18.3334C16.2246 18.3334 15.8007 18.509 15.4882 18.8215C15.1756 19.1341 15 19.558 15 20V26.6667C15 27.1087 15.1756 27.5327 15.4882 27.8452C15.8007 28.1578 16.2246 28.3334 16.6667 28.3334C17.1087 28.3334 17.5326 28.1578 17.8452 27.8452C18.1577 27.5327 18.3333 27.1087 18.3333 26.6667V20C18.3333 19.558 18.1577 19.1341 17.8452 18.8215C17.5326 18.509 17.1087 18.3334 16.6667 18.3334Z" fill="#FB617D"/>
<path d="M23.3333 18.3334C22.8913 18.3334 22.4674 18.509 22.1548 18.8215C21.8423 19.1341 21.6667 19.558 21.6667 20V26.6667C21.6667 27.1087 21.8423 27.5327 22.1548 27.8452C22.4674 28.1578 22.8913 28.3334 23.3333 28.3334C23.7754 28.3334 24.1993 28.1578 24.5118 27.8452C24.8244 27.5327 25 27.1087 25 26.6667V20C25 19.558 24.8244 19.1341 24.5118 18.8215C24.1993 18.509 23.7754 18.3334 23.3333 18.3334Z" fill="#FB617D"/>
<path d="M35 10H26.6667V7.21669C26.6276 6.14972 26.167 5.14178 25.386 4.41384C24.6049 3.6859 23.5671 3.29734 22.5 3.33335H17.5C16.4329 3.29734 15.3951 3.6859 14.614 4.41384C13.833 5.14178 13.3724 6.14972 13.3333 7.21669V10H5C4.55797 10 4.13405 10.1756 3.82149 10.4882C3.50893 10.8007 3.33333 11.2247 3.33333 11.6667C3.33333 12.1087 3.50893 12.5326 3.82149 12.8452C4.13405 13.1578 4.55797 13.3334 5 13.3334H6.66667V31.6667C6.66667 32.9928 7.19345 34.2645 8.13113 35.2022C9.06882 36.1399 10.3406 36.6667 11.6667 36.6667H28.3333C29.6594 36.6667 30.9312 36.1399 31.8689 35.2022C32.8066 34.2645 33.3333 32.9928 33.3333 31.6667V13.3334H35C35.442 13.3334 35.866 13.1578 36.1785 12.8452C36.4911 12.5326 36.6667 12.1087 36.6667 11.6667C36.6667 11.2247 36.4911 10.8007 36.1785 10.4882C35.866 10.1756 35.442 10 35 10ZM16.6667 7.21669C16.6667 6.98335 16.9833 6.66669 17.5 6.66669H22.5C23.0167 6.66669 23.3333 6.98335 23.3333 7.21669V10H16.6667V7.21669ZM30 31.6667C30 32.1087 29.8244 32.5326 29.5118 32.8452C29.1993 33.1578 28.7754 33.3334 28.3333 33.3334H11.6667C11.2246 33.3334 10.8007 33.1578 10.4882 32.8452C10.1756 32.5326 10 32.1087 10 31.6667V13.3334H30V31.6667Z" fill="#FB617D"/>
</svg>
