<svg width="40" height="40" viewBox="0 0 40 40" fill="none" xmlns="http://www.w3.org/2000/svg">
<path d="M16.6667 18.3333C16.2246 18.3333 15.8007 18.5089 15.4882 18.8215C15.1756 19.1341 15 19.558 15 20V26.6667C15 27.1087 15.1756 27.5326 15.4882 27.8452C15.8007 28.1577 16.2246 28.3333 16.6667 28.3333C17.1087 28.3333 17.5326 28.1577 17.8452 27.8452C18.1577 27.5326 18.3333 27.1087 18.3333 26.6667V20C18.3333 19.558 18.1577 19.1341 17.8452 18.8215C17.5326 18.5089 17.1087 18.3333 16.6667 18.3333Z" fill="#3B3F51"/>
<path d="M23.3333 18.3333C22.8913 18.3333 22.4674 18.5089 22.1548 18.8215C21.8423 19.1341 21.6667 19.558 21.6667 20V26.6667C21.6667 27.1087 21.8423 27.5326 22.1548 27.8452C22.4674 28.1577 22.8913 28.3333 23.3333 28.3333C23.7754 28.3333 24.1993 28.1577 24.5118 27.8452C24.8244 27.5326 25 27.1087 25 26.6667V20C25 19.558 24.8244 19.1341 24.5118 18.8215C24.1993 18.5089 23.7754 18.3333 23.3333 18.3333Z" fill="#3B3F51"/>
<path d="M35 10H26.6667V7.21667C26.6276 6.1497 26.167 5.14177 25.386 4.41382C24.6049 3.68588 23.5671 3.29733 22.5 3.33334H17.5C16.4329 3.29733 15.3951 3.68588 14.6141 4.41382C13.833 5.14177 13.3724 6.1497 13.3333 7.21667V10H5.00001C4.55798 10 4.13406 10.1756 3.8215 10.4882C3.50894 10.8007 3.33334 11.2246 3.33334 11.6667C3.33334 12.1087 3.50894 12.5326 3.8215 12.8452C4.13406 13.1577 4.55798 13.3333 5.00001 13.3333H6.66668V31.6667C6.66668 32.9928 7.19346 34.2645 8.13114 35.2022C9.06883 36.1399 10.3406 36.6667 11.6667 36.6667H28.3333C29.6594 36.6667 30.9312 36.1399 31.8689 35.2022C32.8066 34.2645 33.3333 32.9928 33.3333 31.6667V13.3333H35C35.442 13.3333 35.866 13.1577 36.1785 12.8452C36.4911 12.5326 36.6667 12.1087 36.6667 11.6667C36.6667 11.2246 36.4911 10.8007 36.1785 10.4882C35.866 10.1756 35.442 10 35 10ZM16.6667 7.21667C16.6667 6.98334 16.9833 6.66667 17.5 6.66667H22.5C23.0167 6.66667 23.3333 6.98334 23.3333 7.21667V10H16.6667V7.21667ZM30 31.6667C30 32.1087 29.8244 32.5326 29.5119 32.8452C29.1993 33.1577 28.7754 33.3333 28.3333 33.3333H11.6667C11.2246 33.3333 10.8007 33.1577 10.4882 32.8452C10.1756 32.5326 10 32.1087 10 31.6667V13.3333H30V31.6667Z" fill="#3B3F51"/>
</svg>
