<svg width="24" height="24" viewBox="0 0 24 24" fill="none" xmlns="http://www.w3.org/2000/svg">
<path d="M21.44 7.80005C21.4309 6.97434 21.2821 6.15613 21 5.38005C20.7659 4.71732 20.3906 4.11338 19.9 3.61005C19.4331 3.10579 18.859 2.71279 18.22 2.46005C17.4884 2.16568 16.7085 2.0097 15.92 2.00005C14.92 1.95005 14.58 1.93005 12 1.93005C9.42 1.93005 9.1 2.00005 8.09 2.00005C7.30133 2.01737 6.52223 2.17658 5.79 2.47005C5.14881 2.71948 4.57142 3.10896 4.1 3.61005C3.61427 4.11332 3.23953 4.71291 3 5.37005C2.71881 6.14638 2.57007 6.96444 2.56 7.79005C2.56 8.86005 2.5 9.20005 2.5 11.9001C2.5 14.6001 2.5 14.9001 2.55 16.0101C2.57231 16.8353 2.72416 17.6519 3 18.4301C3.2417 19.0891 3.61609 19.6915 4.1 20.2001C4.56861 20.7023 5.14224 21.0949 5.78 21.3501C6.51543 21.6432 7.29836 21.7991 8.09 21.8101C9.09 21.8601 9.42 21.8701 12 21.8701C14.58 21.8701 14.9 21.8701 15.91 21.8101C16.7018 21.8003 17.4849 21.6443 18.22 21.3501C18.8607 21.083 19.4387 20.6854 19.9174 20.1827C20.396 19.68 20.7647 19.0831 21 18.4301C21.2735 17.6482 21.422 16.8281 21.44 16.0001C21.44 14.9401 21.44 14.6001 21.44 11.8901C21.44 9.18005 21.49 8.86005 21.44 7.80005ZM19.73 15.9401C19.7256 16.5701 19.6175 17.1951 19.41 17.7901C19.2547 18.2127 19.0138 18.5988 18.7023 18.924C18.3908 19.2492 18.0156 19.5066 17.6 19.6801C17.0398 19.9027 16.4428 20.018 15.84 20.0201C14.84 20.0701 14.54 20.0801 12.01 20.0801C9.48 20.0801 9.17 20.0801 8.17 20.0201C7.56721 20.018 6.97018 19.9027 6.41 19.6801C5.99471 19.5203 5.62175 19.2671 5.32 18.9401C5.00215 18.6132 4.7598 18.2207 4.61 17.7901C4.40351 17.1945 4.29215 16.5702 4.28 15.9401C4.28 14.9401 4.28 14.5701 4.28 11.9401C4.28 9.31005 4.28 8.94005 4.28 7.94005C4.28043 7.27946 4.39199 6.62364 4.61 6.00005C4.75982 5.57592 4.99764 5.18827 5.30786 4.86254C5.61808 4.53681 5.99368 4.28037 6.41 4.11005C6.977 3.90278 7.5763 3.79781 8.18 3.80005C9.18 3.80005 9.48 3.80005 12.01 3.80005C14.54 3.80005 14.85 3.80005 15.85 3.80005C16.4528 3.81157 17.0487 3.93008 17.61 4.15005C18.0237 4.31291 18.396 4.56567 18.7 4.89005C19.0137 5.2047 19.2559 5.58331 19.41 6.00005C19.6175 6.59498 19.7256 7.22 19.73 7.85005C19.78 8.85005 19.79 9.21005 19.79 11.8501C19.79 14.4901 19.78 14.8801 19.73 15.9401Z" fill="white"/>
<path d="M12 6.78003C11.3434 6.79688 10.6964 6.94297 10.0962 7.20994C9.49604 7.47691 8.95433 7.85953 8.50206 8.33594C8.0498 8.81235 7.69584 9.37321 7.46042 9.98647C7.225 10.5997 7.11273 11.2534 7.13003 11.91C7.10584 13.2294 7.60419 14.5048 8.51644 15.4583C9.4287 16.4118 10.6809 16.9659 12 17C12.6567 16.9845 13.3039 16.8397 13.9045 16.5739C14.5052 16.3081 15.0477 15.9266 15.5008 15.4511C15.954 14.9756 16.3091 14.4155 16.5457 13.8028C16.7824 13.1901 16.896 12.5367 16.88 11.88C16.9069 10.5573 16.4083 9.27778 15.4937 8.32186C14.579 7.36594 13.3227 6.81151 12 6.78003ZM12 15.23C11.1415 15.2065 10.3272 14.844 9.73513 14.2219C9.14301 13.5998 8.82121 12.7687 8.84003 11.91C8.81852 11.0497 9.13913 10.2159 9.73153 9.59168C10.3239 8.96741 11.1397 8.60359 12 8.58003C12.4269 8.59041 12.8475 8.68479 13.2378 8.85778C13.6282 9.03077 13.9806 9.27897 14.275 9.58822C14.5694 9.89747 14.7999 10.2617 14.9535 10.6601C15.1071 11.0585 15.1807 11.4832 15.17 11.91C15.1888 12.7703 14.8656 13.603 14.2714 14.2254C13.6771 14.8478 12.8603 15.2091 12 15.23Z" fill="white"/>
<path d="M18.2101 6.58001C18.2003 6.80309 18.1252 7.01839 17.9941 7.19917C17.863 7.37995 17.6818 7.51825 17.4728 7.59692C17.2638 7.67559 17.0363 7.69115 16.8186 7.64168C16.6008 7.59221 16.4024 7.47988 16.2479 7.31864C16.0935 7.15739 15.9898 6.95433 15.9497 6.73467C15.9096 6.515 15.9349 6.2884 16.0225 6.08299C16.11 5.87757 16.256 5.7024 16.4422 5.57921C16.6284 5.45602 16.8468 5.39023 17.0701 5.39001C17.3786 5.39788 17.6716 5.52737 17.8851 5.75026C18.0986 5.97315 18.2154 6.27139 18.2101 6.58001Z" fill="white"/>
</svg>
