<svg width="47" height="32" viewBox="0 0 47 32" fill="none" xmlns="http://www.w3.org/2000/svg">
<g clip-path="url(#clip0_4_379)">
<path d="M40.2802 31.9743C38.6977 32.0684 37.4146 31.4354 36.0802 31.042L32.1968 29.9385C31.4783 29.7332 30.7426 29.5622 30.0327 29.3141C29.0583 28.9869 28.0183 28.9047 27.0046 29.0746C25.884 29.2628 24.7464 29.3397 23.583 29.545C22.7277 29.7076 21.8723 30.0326 21.0169 30.2122C19.5028 30.5202 17.9717 30.811 16.4406 31.0163C14.8904 31.2876 13.318 31.4107 11.7445 31.3841C10.1027 31.397 8.47658 31.0648 6.97144 30.409C6.11605 29.9642 5.14947 29.6905 4.31975 29.2029C3.19534 28.3887 2.34033 27.2567 1.86478 25.9524C1.28312 24.7463 1.0094 23.3862 0.42774 22.1887C0.167255 21.5468 0.0759515 20.8488 0.162573 20.1614C0.162573 18.6645 -0.0427246 17.159 -0.0427246 15.6536C-0.00150005 14.8115 0.133342 13.9766 0.359308 13.1644C0.537578 12.3675 0.763225 11.582 1.03506 10.8121C1.2521 10.0769 1.55651 9.37049 1.94176 8.70784C2.55346 7.81731 3.21309 6.96066 3.91772 6.14168C4.09299 5.9208 4.25031 5.68624 4.38817 5.44026C4.69176 4.99557 5.07104 4.60762 5.50874 4.29404C7.26978 2.91148 9.24262 1.82249 11.351 1.06922C12.8046 0.591697 14.3088 0.284573 15.8332 0.153976C17.353 -0.00706562 18.8829 -0.0528201 20.4096 0.0171112C21.4185 0.133173 22.4187 0.316044 23.4034 0.564545C23.9485 0.675002 24.4998 0.752147 25.0543 0.795516C27.0982 0.886169 29.1053 1.37122 30.965 2.224C32.0685 2.72012 33.2318 3.0794 34.3866 3.5242C34.7415 3.69987 35.087 3.89402 35.4216 4.10586C36.3755 4.54924 37.3037 5.04615 38.2016 5.59422C39.3392 6.35551 40.4085 7.23656 41.4692 8.10906C42.6342 9.12961 43.6126 10.3453 44.3604 11.7017C45.4542 13.424 46.1767 15.3555 46.4817 17.3729C46.76 18.785 46.76 20.2378 46.4817 21.6498C46.4817 21.8295 46.5502 22.0433 46.5502 22.24C46.5761 23.4447 46.5333 24.6499 46.4218 25.8498C46.3363 26.4058 45.806 26.8933 45.498 27.4322C45.0281 28.4465 44.4549 29.4097 43.7873 30.3063C42.8378 31.4611 41.7172 32.154 40.2802 31.9743ZM40.2802 28.3133C42.4443 28.5186 43.8814 26.9104 44.5571 25.2168C44.8713 24.2516 45.1031 23.2615 45.25 22.2572C45.4754 21.4427 45.6017 20.6041 45.6263 19.7594C45.575 18.5961 45.2671 17.4413 45.1217 16.2694C44.8223 13.8402 43.4109 11.9412 42.0081 10.1107C40.7925 8.72984 39.3451 7.57193 37.7311 6.68911C36.6557 5.99676 35.5387 5.37115 34.3866 4.81582C33.0458 4.16136 31.666 3.59002 30.2551 3.10504C28.7246 2.59597 27.165 2.17895 25.5846 1.85619C24.2075 1.57391 22.7961 1.45416 21.3933 1.30019C20.2995 1.14215 19.1965 1.05641 18.0915 1.04356C16.8629 1.05146 15.6386 1.18909 14.439 1.45415C12.9722 1.78568 11.5402 2.2554 10.162 2.857C8.96449 3.39589 7.93802 4.31115 6.74048 4.90992C5.72687 5.52783 4.88085 6.3856 4.27698 7.40763C3.49958 8.58298 2.846 9.83567 2.3267 11.1457C1.52318 12.8637 1.11681 14.7407 1.13771 16.6373C1.19929 18.036 1.4115 19.4241 1.77069 20.7773C2.01216 21.6453 2.41877 22.4585 2.96824 23.1724C3.54864 23.9824 4.25636 24.693 5.06393 25.2767C6.21113 25.9883 7.49209 26.457 8.82763 26.6538C10.9964 27.1181 13.2243 27.2422 15.4312 27.0217C17.6855 26.8316 19.9054 26.3485 22.0348 25.5846C23.9936 24.8917 25.9183 24.0192 28.0824 24.3614C29.22 24.4741 30.3417 24.7122 31.4269 25.0714C32.9837 25.7044 34.4379 26.5854 35.9348 27.3467C37.2954 28.0172 38.798 28.3488 40.3144 28.3133H40.2802ZM2.97679 25.1312C3.21562 26.2508 3.85805 27.2434 4.78165 27.9198C6.18744 28.931 7.80013 29.6175 9.50339 29.93C10.3649 30.1542 11.2484 30.2833 12.138 30.3149C13.8488 30.2379 15.5595 30.007 17.1933 29.8017C18.6303 29.7144 20.0503 29.4442 21.4189 28.9976C23.2034 28.3435 25.0797 27.9741 26.9789 27.9027C28.6747 27.836 30.3668 28.1064 31.9573 28.6982C34.1556 29.4338 36.3796 30.1267 38.6122 30.7255C39.6342 31.1018 40.7622 31.0681 41.76 30.6314C42.666 30.0758 43.3751 29.2501 43.7873 28.2705C43.6304 28.3092 43.4761 28.3578 43.3254 28.4159C42.8738 28.7176 42.3772 28.9457 41.8541 29.0917C40.8094 29.2478 39.7499 29.2794 38.6977 29.1858C37.1437 28.9633 35.6426 28.462 34.2668 27.706C32.8326 26.829 31.2992 26.1255 29.6991 25.6103C27.6345 25.0617 25.4459 25.2182 23.4804 26.0551C22.4383 26.5216 21.3597 26.9021 20.2556 27.1927C18.5351 27.6319 16.7858 27.9492 15.0206 28.1422C12.633 28.3112 10.2336 28.118 7.90381 27.5691C6.08429 27.1789 4.39084 26.3409 2.97679 25.1312Z" fill="white"/>
<path d="M43.907 19.8279C44.0545 21.212 43.8239 22.6103 43.2398 23.8738C42.9257 24.6361 42.4208 25.3048 41.7737 25.8156C41.1265 26.3264 40.3589 26.6622 39.5446 26.7907C38.4268 26.8528 37.3166 26.5722 36.3625 25.9866C34.8998 25.2253 33.4627 24.37 31.9487 23.7113C30.6477 23.1085 29.2815 22.6578 27.8771 22.3684C25.6749 21.8627 23.3643 22.1663 21.3676 23.2238C19.578 24.2707 17.6562 25.0733 15.6536 25.6103C13.6391 26.1277 11.5265 26.1277 9.51194 25.6103C8.13133 25.3447 6.86206 24.6713 5.868 23.6771C4.35256 22.1243 3.3803 20.1228 3.09654 17.9717C2.90165 17.031 2.79002 16.075 2.76294 15.1147C2.77273 12.6131 3.68378 10.1988 5.3291 8.31435C6.58597 7.03726 7.98345 5.90664 9.49483 4.94413C10.4309 4.18853 11.5334 3.66662 12.7111 3.42154C14.1909 3.26757 15.5424 2.56615 17.0565 2.56615C17.9118 2.56615 18.8185 2.3181 19.6996 2.28389C20.3987 2.27844 21.0969 2.33282 21.7867 2.44641C22.581 2.63369 23.3868 2.768 24.1989 2.84845C25.6806 2.94789 27.131 3.32208 28.4758 3.9519C29.6049 4.33173 30.703 4.79785 31.7605 5.34616C33.4042 6.25761 34.9924 7.26589 36.5165 8.36567C37.7062 9.24491 38.7987 10.2485 39.7755 11.3595C40.8704 12.6084 42.1877 13.6776 42.9148 15.2515C43.6572 16.6578 44.0003 18.2404 43.907 19.8279ZM42.872 20.2727C42.8121 19.4173 42.8036 18.5619 42.6753 17.7065C42.5971 17.108 42.4117 16.5284 42.1278 15.9957C40.9192 13.9727 39.3911 12.1586 37.6028 10.6239C36.391 9.50508 35.0699 8.5107 33.6595 7.65571C31.9487 6.64636 30.1182 5.85941 28.3219 5.02113C27.0659 4.40803 25.7099 4.02558 24.3187 3.89202C23.4034 3.82359 22.4881 3.72093 21.5814 3.61829C19.6906 3.37022 17.7754 3.37022 15.8846 3.61829C14.7611 3.74172 13.6542 3.98548 12.5828 4.34537C10.6049 5.17513 8.78919 6.34793 7.21951 7.80968C6.14538 8.7515 5.28456 9.91167 4.69453 11.2127C4.1045 12.5137 3.79884 13.9256 3.79796 15.3542C3.70994 17.7488 4.43334 20.1028 5.85088 22.0348C6.48139 22.9935 7.415 23.7133 8.50259 24.0791C10.1526 24.6381 11.8964 24.8677 13.6349 24.7549C15.3786 24.4841 17.0768 23.9746 18.6817 23.2409C19.8963 22.7447 21.0768 22.1374 22.2829 21.5814C23.8918 20.9857 25.6278 20.8177 27.3211 21.0938C28.8291 21.1628 30.3049 21.5536 31.6493 22.24C32.787 22.8645 33.9845 23.3948 35.1479 23.9508C35.975 24.4353 36.8321 24.8667 37.714 25.2425C39.767 25.9695 40.5111 25.7215 41.8627 24.0193C42.6514 22.9287 43.0107 21.5857 42.872 20.247V20.2727Z" fill="white"/>
<path d="M16.9281 7.11681C18.1427 7.24512 19.3659 7.33065 20.2384 8.45121C20.5891 8.90456 21.3076 9.05854 21.7268 9.47768C22.1762 9.9012 22.5225 10.4222 22.739 11.0005C22.9555 11.5788 23.0365 12.1991 22.9757 12.8137C22.986 13.5307 22.9258 14.2469 22.796 14.9522C22.5856 15.544 22.2296 16.0735 21.761 16.4918C21.1833 17.1205 20.4852 17.6266 19.7081 17.9802C18.6969 18.3823 17.6051 18.54 16.5216 18.4404C15.438 18.3408 14.3932 17.9868 13.4723 17.4071C12.687 16.9627 12.0818 16.2577 11.7615 15.4141C11.5477 14.8153 11.2226 14.2593 11.0088 13.6605C10.8762 13.1889 10.8489 12.6939 10.9287 12.2106C11.0085 11.7273 11.1936 11.2674 11.4707 10.8634C11.9173 9.85442 12.6082 8.97251 13.4809 8.29725C14.4715 7.54035 15.6814 7.12605 16.9281 7.11681ZM22.0176 13.1558C22.0881 12.3805 21.9224 11.6021 21.5423 10.9227C21.1621 10.2433 20.5853 9.69486 19.8877 9.34938C19.212 8.93879 18.2881 8.91313 17.8861 8.0663C17.8624 8.0321 17.8303 8.00463 17.7928 7.98663C17.7553 7.96863 17.7137 7.96073 17.6723 7.96366C17.0557 7.92186 16.4364 7.94478 15.8246 8.03208C14.4335 8.3864 13.238 9.27455 12.4972 10.5041C11.9412 11.3595 11.4108 12.2149 11.7958 13.3697C12.0144 14.1486 12.4011 14.8702 12.9287 15.4835C13.4563 16.0968 14.112 16.587 14.8495 16.9195C15.6945 17.2044 16.5845 17.332 17.4755 17.2959C19.5113 17.4242 22.1459 15.6365 22.0176 13.1558Z" fill="white"/>
<path d="M10.3075 22.1716C9.70854 22.3812 9.0567 22.3848 8.45545 22.1818C7.85419 21.9788 7.33795 21.5809 6.98862 21.0511C6.4321 20.0059 5.95736 18.9191 5.56868 17.8006C5.3976 17.3558 5.80819 16.6971 6.15035 16.7656C6.4925 16.834 6.74912 17.1761 6.79189 17.621C6.90391 18.8802 7.35957 20.0844 8.10917 21.1024C8.35724 21.4445 8.96456 21.5472 9.36659 21.7525C9.66598 21.8979 9.93115 22.0005 10.3075 22.1716Z" fill="white"/>
<path d="M39.7583 22.8901C40.3178 22.2017 40.6813 21.3752 40.8108 20.4977C40.9402 19.6201 40.8308 18.7239 40.4939 17.9032C41.3493 17.8006 41.4263 17.9032 41.8112 18.9382C42.3074 20.3069 41.3408 22.4795 40.263 22.8131C40.0965 22.8494 39.928 22.8751 39.7583 22.8901Z" fill="white"/>
<path d="M33.6766 21.9578C33.1834 21.8367 32.7024 21.6707 32.2395 21.4616C32.077 21.3676 32.0599 20.9997 31.9744 20.7517C32.1882 20.7003 32.4277 20.5635 32.6159 20.6148C33.0218 20.7222 33.4106 20.8864 33.7707 21.1024C33.9654 21.2492 34.1333 21.4286 34.2668 21.6327L33.6766 21.9578Z" fill="white"/>
<path d="M37.6284 22.2144L38.4838 22.6506C38.3469 22.8131 38.1844 23.1125 38.0732 23.0954C37.7054 23.0441 37.3974 22.8131 37.6284 22.2144Z" fill="white"/>
<path d="M19.9733 13.1473C19.9898 13.5293 19.9276 13.9106 19.7906 14.2675C19.6535 14.6244 19.4446 14.9494 19.1766 15.2221C18.9087 15.4949 18.5875 15.7096 18.2331 15.853C17.8787 15.9964 17.4985 16.0653 17.1163 16.0556C15.4055 16.0043 13.5322 14.6442 13.5836 13.0275C13.6349 11.1713 15.0719 9.93104 17.0735 9.80273C17.8981 9.87056 18.6634 10.2586 19.2054 10.8837C19.7474 11.5089 20.023 12.3214 19.9733 13.1473ZM18.887 12.6426C18.9119 12.3794 18.8683 12.1142 18.7604 11.8729C18.6525 11.6316 18.4839 11.4223 18.2711 11.2654C17.1847 10.4101 15.6536 11.0345 14.8495 12.232C14.6651 12.4412 14.5544 12.705 14.5343 12.9831C14.5142 13.2612 14.5859 13.5382 14.7383 13.7717C15.0019 14.1024 15.3293 14.3766 15.7011 14.5779C16.0729 14.7793 16.4815 14.9036 16.9025 14.9436C17.9802 15.0548 18.9212 14.2593 18.887 12.6426Z" fill="white"/>
</g>
<defs>
<clipPath id="clip0_4_379">
<rect width="46.7298" height="32" fill="white"/>
</clipPath>
</defs>
</svg>
