<svg width="24" height="24" viewBox="0 0 24 24" fill="none" xmlns="http://www.w3.org/2000/svg">
<path d="M20 7.91997C20 8.09997 20 8.26997 20 8.44997C20.012 9.98969 19.7172 11.5164 19.1326 12.9409C18.548 14.3654 17.6854 15.6591 16.5952 16.7465C15.505 17.8338 14.2091 18.6931 12.7831 19.274C11.3571 19.855 9.82969 20.146 8.29 20.13C6.05881 20.1327 3.87443 19.4902 2 18.28C2.33174 18.321 2.66574 18.3411 3 18.34C4.84895 18.3399 6.64454 17.7202 8.1 16.58C7.24262 16.5649 6.41142 16.282 5.72283 15.7709C5.03425 15.2599 4.52276 14.5462 4.26 13.73C4.51342 13.7818 4.77133 13.8086 5.03 13.81C5.39533 13.812 5.75905 13.7615 6.11 13.66C5.1851 13.4736 4.35278 12.9739 3.75344 12.2452C3.1541 11.5165 2.82442 10.6034 2.82 9.65997V9.58997C3.39018 9.90653 4.02809 10.0814 4.68 10.1C4.11532 9.72797 3.65167 9.22178 3.33057 8.62668C3.00946 8.03159 2.84091 7.36616 2.84 6.68997C2.83952 5.96379 3.02914 5.25013 3.39 4.61997C4.41996 5.88888 5.70558 6.92668 7.16318 7.66582C8.62079 8.40496 10.2177 8.82887 11.85 8.90997C11.6373 8.02736 11.7235 7.09911 12.0952 6.2708C12.4669 5.4425 13.103 4.76099 13.9038 4.33315C14.7045 3.90532 15.6247 3.75537 16.5198 3.90682C17.415 4.05826 18.2345 4.50254 18.85 5.16997C19.771 4.98903 20.6539 4.65075 21.46 4.16997C21.1537 5.12207 20.51 5.92939 19.65 6.43997C20.46 6.34069 21.2515 6.12513 22 5.79997C21.4615 6.61739 20.7847 7.33478 20 7.91997Z" fill="white"/>
</svg>
