<svg width="24" height="24" viewBox="0 0 24 24" fill="none" xmlns="http://www.w3.org/2000/svg">
<path d="M0 24.0006C0.255839 23.0675 0.500392 22.1796 0.741182 21.2879C1.03841 20.2044 1.33563 19.1208 1.62157 18.0335C1.65167 17.9206 1.63662 17.7664 1.58018 17.661C-0.857815 13.1763 -0.278414 7.82627 3.11146 3.9962C5.17699 1.66731 7.78805 0.327916 10.8958 0.0495026C16.1442 -0.417028 20.8961 2.44612 22.9729 7.28073C24.9519 11.8934 23.6727 17.4955 19.8878 20.7913C17.5513 22.8267 14.8349 23.8388 11.7385 23.7937C9.87616 23.7636 8.11914 23.3008 6.46371 22.4392C6.36589 22.3903 6.22292 22.3828 6.11381 22.4091C4.16492 22.9133 2.21602 23.425 0.267127 23.9366C0.195642 23.9554 0.124157 23.9705 0 24.0006ZM2.85938 21.1713C2.93839 21.1525 2.97601 21.1487 3.01364 21.1374C4.09343 20.8553 5.17322 20.5769 6.24926 20.2834C6.49005 20.2194 6.67816 20.2382 6.90014 20.3662C9.80467 22.0404 12.8334 22.2925 15.9147 20.9606C20.1887 19.1171 22.4875 14.7716 21.7313 10.1552C21.0014 5.69302 17.0171 2.17899 12.4797 2.00968C9.97398 1.91563 7.72033 2.62671 5.7752 4.21818C3.53284 6.05797 2.30632 8.44706 2.12573 11.3441C1.99028 13.4961 2.53958 15.4864 3.71343 17.2999C3.81878 17.4616 3.83759 17.5971 3.78492 17.7852C3.47264 18.8989 3.17542 20.0163 2.85938 21.1713Z" fill="white"/>
<path d="M8.19056 6.40037C8.66838 6.27621 8.90917 6.59977 9.08976 7.06254C9.35688 7.75481 9.64659 8.4358 9.94005 9.11302C10.0416 9.35005 10.0416 9.5645 9.88737 9.77143C9.64658 10.0912 9.41708 10.4186 9.16501 10.7271C9.00322 10.9265 8.9957 11.1033 9.12362 11.3178C10.0943 12.9506 11.445 14.132 13.2133 14.8355C13.4541 14.9334 13.6497 14.8957 13.8115 14.6926C14.1087 14.3201 14.4172 13.9627 14.7032 13.5827C14.8687 13.3607 15.0606 13.2742 15.3052 13.387C16.1554 13.7859 17.0057 14.1884 17.8485 14.606C17.935 14.6512 18.0216 14.8017 18.0216 14.9033C18.0479 15.7874 17.7921 16.5286 16.9982 17.0403C16.0313 17.6686 15.0155 17.7326 13.9357 17.4316C11.223 16.6753 9.16877 15.0199 7.51333 12.8001C6.91888 12.0025 6.35077 11.1898 6.09493 10.2079C5.78642 9.01896 5.96701 7.92788 6.79096 6.97977C7.24245 6.46433 7.40799 6.38908 8.19056 6.40037Z" fill="white"/>
</svg>
